<svg width="25" height="20" viewBox="0 0 25 20" fill="none" xmlns="http://www.w3.org/2000/svg">
<path d="M23.2343 0.553955H2.07513C1.24048 0.553955 0.149643 0.648416 0.149643 2.19606V18.0655C0.149643 18.9001 0.362368 19.4461 1.69729 19.4461H23.2343C24.069 19.4461 24.3316 18.9001 24.3316 18.0655V2.19606C24.3316 1.36141 24.069 0.553955 23.2343 0.553955ZM22.8202 2.06533V3.95454H1.66102V2.06533H22.8202ZM1.66102 17.9347V4.71023H22.8202V17.9347H1.66102Z" fill="#2B3161"/>
<path d="M10.1266 6.22162H4.15214C3.31408 6.22162 3.17239 6.59946 3.17239 7.419V15.3537C3.17239 15.7708 3.35678 16.0455 3.7743 16.0455H10.127C10.5441 16.0455 10.7296 16.1487 10.7296 15.7315V7.419C10.7293 7.00149 10.8948 6.22162 10.1266 6.22162ZM9.97357 15.2899H3.92808V6.9773H9.97357V15.2899Z" fill="#2B3161"/>
<path d="M11.8001 6.9773H16.3342C16.5431 6.9773 16.712 6.80841 16.712 6.59946C16.712 6.39051 16.5431 6.22162 16.3342 6.22162H11.8001C11.5911 6.22162 11.4222 6.39051 11.4222 6.59946C11.4222 6.80841 11.5911 6.9773 11.8001 6.9773Z" fill="#2B3161"/>
<path d="M21.2461 6.22162H17.8455C17.6366 6.22162 17.4677 6.39051 17.4677 6.59946C17.4677 6.80841 17.6366 6.9773 17.8455 6.9773H21.2461C21.4551 6.9773 21.624 6.80841 21.624 6.59946C21.624 6.39051 21.4551 6.22162 21.2461 6.22162Z" fill="#2B3161"/>
<path d="M11.8001 8.86653H14.0671C14.2761 8.86653 14.445 8.69763 14.445 8.48868C14.445 8.27974 14.2761 8.11084 14.0671 8.11084H11.8001C11.5911 8.11084 11.4222 8.27974 11.4222 8.48868C11.4222 8.69763 11.5911 8.86653 11.8001 8.86653Z" fill="#2B3161"/>
<path d="M4.62104 3.57667H4.99888C5.20783 3.57667 5.37672 3.40777 5.37672 3.19883C5.37672 2.98988 5.20783 2.82098 4.99888 2.82098H4.62104C4.41209 2.82098 4.24319 2.98988 4.24319 3.19883C4.24319 3.40777 4.41209 3.57667 4.62104 3.57667Z" fill="#2B3161"/>
<path d="M19.3569 3.57667H19.7348C19.9437 3.57667 20.1126 3.40777 20.1126 3.19883C20.1126 2.98988 19.9437 2.82098 19.7348 2.82098H19.3569C19.148 2.82098 18.9791 2.98988 18.9791 3.19883C18.9791 3.40777 19.148 3.57667 19.3569 3.57667Z" fill="#2B3161"/>
<path d="M18.2234 8.11084H15.5785C15.3695 8.11084 15.2006 8.27974 15.2006 8.48868C15.2006 8.69763 15.3695 8.86653 15.5785 8.86653H18.2234C18.4323 8.86653 18.6012 8.69763 18.6012 8.48868C18.6012 8.27974 18.4323 8.11084 18.2234 8.11084Z" fill="#2B3161"/>
<path d="M11.8001 10.7557H15.5785C15.7874 10.7557 15.9563 10.5868 15.9563 10.3778C15.9563 10.1689 15.7874 10 15.5785 10H11.8001C11.5911 10 11.4222 10.1689 11.4222 10.3778C11.4222 10.5868 11.5911 10.7557 11.8001 10.7557Z" fill="#2B3161"/>
<path d="M16.712 10.3778C16.712 10.5868 16.8809 10.7557 17.0898 10.7557H19.7347C19.9437 10.7557 20.1126 10.5868 20.1126 10.3778C20.1126 10.1689 19.9437 10 19.7347 10H17.0898C16.8809 10 16.712 10.1689 16.712 10.3778Z" fill="#2B3161"/>
<path d="M21.2461 8.11084H19.7348C19.5258 8.11084 19.3569 8.27974 19.3569 8.48868C19.3569 8.69763 19.5258 8.86653 19.7348 8.86653H21.2461C21.4551 8.86653 21.624 8.69763 21.624 8.48868C21.624 8.27974 21.4551 8.11084 21.2461 8.11084Z" fill="#2B3161"/>
<path d="M11.8001 13.7785H14.8228C15.0317 13.7785 15.2006 13.6096 15.2006 13.4006C15.2006 13.1917 15.0317 13.0228 14.8228 13.0228H11.8001C11.5911 13.0228 11.4222 13.1917 11.4222 13.4006C11.4222 13.6096 11.5911 13.7785 11.8001 13.7785Z" fill="#2B3161"/>
<path d="M21.2461 13.0228H16.3342C16.1252 13.0228 15.9563 13.1917 15.9563 13.4006C15.9563 13.6096 16.1252 13.7785 16.3342 13.7785H21.2461C21.4551 13.7785 21.624 13.6096 21.624 13.4006C21.624 13.1917 21.4551 13.0228 21.2461 13.0228Z" fill="#2B3161"/>
<path d="M17.4677 14.912H11.8001C11.5911 14.912 11.4222 15.0809 11.4222 15.2898C11.4222 15.4988 11.5911 15.6677 11.8001 15.6677H17.4677C17.6766 15.6677 17.8455 15.4988 17.8455 15.2898C17.8455 15.0809 17.6766 14.912 17.4677 14.912Z" fill="#2B3161"/>
<path d="M21.2461 14.912H18.9791C18.7701 14.912 18.6012 15.0809 18.6012 15.2898C18.6012 15.4988 18.7701 15.6677 18.9791 15.6677H21.2461C21.4551 15.6677 21.624 15.4988 21.624 15.2898C21.624 15.0809 21.4551 14.912 21.2461 14.912Z" fill="#2B3161"/>
</svg>
