<svg width="65" height="65" viewBox="0 0 65 65" fill="none" xmlns="http://www.w3.org/2000/svg">
<rect x="0.5" y="0.948486" width="64" height="64" rx="32" fill="black" fill-opacity="0.4"/>
<g clip-path="url(#clip0_6_137)">
<path fill-rule="evenodd" clip-rule="evenodd" d="M42.5 23.9485H39.035L37.3312 21.3935C37.1459 21.1156 36.834 20.9487 36.5 20.9485H28.5C28.166 20.9487 27.8541 21.1156 27.6687 21.3935L25.9637 23.9485H22.5C20.8431 23.9485 19.5 25.2916 19.5 26.9485V40.9485C19.5 42.6053 20.8431 43.9485 22.5 43.9485H42.5C44.1569 43.9485 45.5 42.6053 45.5 40.9485V26.9485C45.5 25.2916 44.1569 23.9485 42.5 23.9485ZM37 33.4485C37 35.9338 34.9853 37.9485 32.5 37.9485C30.0147 37.9485 28 35.9338 28 33.4485C28 30.9632 30.0147 28.9485 32.5 28.9485C34.9853 28.9485 37 30.9632 37 33.4485Z" fill="white"/>
</g>
<defs>
<clipPath id="clip0_6_137">
<rect width="32" height="32" fill="white" transform="translate(16.5 16.9485)"/>
</clipPath>
</defs>
</svg>
