<svg width="22" height="22" viewBox="0 0 22 22" fill="none" xmlns="http://www.w3.org/2000/svg">
<path d="M10.9566 20.492C16.2273 20.492 20.5001 16.2192 20.5001 10.9485C20.5001 5.67774 16.2273 1.40497 10.9566 1.40497C5.68586 1.40497 1.41309 5.67774 1.41309 10.9485C1.41309 12.4752 1.77156 13.918 2.40891 15.1977C2.57829 15.5378 2.63467 15.9265 2.53647 16.2934L1.96805 18.4179C1.72129 19.3401 2.565 20.1837 3.48723 19.937L5.61165 19.3686C5.97864 19.2704 6.36733 19.3268 6.70738 19.4961C7.98701 20.1335 9.42993 20.492 10.9566 20.492Z" stroke="#756387" stroke-width="1.3"/>
<path d="M7.13916 9.51697H14.774" stroke="#756387" stroke-width="1.3" stroke-linecap="round"/>
<path d="M7.13916 12.8572H12.3881" stroke="#756387" stroke-width="1.3" stroke-linecap="round"/>
</svg>
