<svg width="25" height="25" viewBox="0 0 25 25" fill="none" xmlns="http://www.w3.org/2000/svg">
<path d="M7.68285 20.8469C7.30937 20.6308 6.83145 20.7584 6.61541 21.1319C6.39936 21.5054 6.52698 21.9833 6.90047 22.1994L7.68285 20.8469ZM2.80064 18.0995C3.01668 18.473 3.4946 18.6006 3.86809 18.3846C4.24157 18.1685 4.36919 17.6906 4.15315 17.3172L2.80064 18.0995ZM22.1354 12.5C22.1354 17.8214 17.8215 22.1354 12.5 22.1354V23.6979C18.6845 23.6979 23.6979 18.6845 23.6979 12.5H22.1354ZM2.86458 12.5C2.86458 7.17849 7.1785 2.86456 12.5 2.86456V1.30206C6.31556 1.30206 1.30208 6.31554 1.30208 12.5H2.86458ZM16.1458 14.8437C12.8379 14.8437 10.1562 12.1621 10.1562 8.85415H8.59374C8.59374 13.0251 11.9749 16.4062 16.1458 16.4062V14.8437ZM21.2763 11.9469C20.2262 13.6847 18.321 14.8437 16.1458 14.8437V16.4062C18.8905 16.4062 21.2924 14.9415 22.6137 12.7549L21.2763 11.9469ZM10.1562 8.85415C10.1562 6.67896 11.3153 4.77373 13.0531 3.72359L12.2451 2.38628C10.0584 3.70758 8.59374 6.10945 8.59374 8.85415H10.1562ZM12.5 2.86456C12.4078 2.86456 12.2997 2.82298 12.2212 2.74131C12.1548 2.67214 12.1394 2.60669 12.1357 2.58022C12.1313 2.54776 12.1335 2.4537 12.2451 2.38628L13.0531 3.72359C13.5773 3.40691 13.7458 2.82704 13.6842 2.37109C13.6202 1.89713 13.2465 1.30206 12.5 1.30206V2.86456ZM22.6137 12.7549C22.5462 12.8664 22.4522 12.8686 22.4198 12.8643C22.3933 12.8606 22.3278 12.8452 22.2586 12.7787C22.177 12.7003 22.1354 12.5922 22.1354 12.5H23.6979C23.6979 11.7535 23.1028 11.3798 22.6288 11.3158C22.1729 11.2541 21.593 11.4227 21.2763 11.9469L22.6137 12.7549ZM12.5 22.1354C10.7436 22.1354 9.0993 21.6662 7.68285 20.8469L6.90047 22.1994C8.54833 23.1526 10.4617 23.6979 12.5 23.6979V22.1354ZM4.15315 17.3172C3.33378 15.9007 2.86458 14.2563 2.86458 12.5H1.30208C1.30208 14.5383 1.8474 16.4516 2.80064 18.0995L4.15315 17.3172Z" fill="#1C274C"/>
</svg>
