<svg width="41" height="41" viewBox="0 0 41 41" fill="none" xmlns="http://www.w3.org/2000/svg">
<rect x="0.5" y="0.948486" width="40" height="40" rx="20" fill="black" fill-opacity="0.4"/>
<g clip-path="url(#clip0_6_142)">
<path fill-rule="evenodd" clip-rule="evenodd" d="M29.875 22.1985C29.875 22.5437 29.5952 22.8235 29.25 22.8235C28.9048 22.8235 28.625 22.5437 28.625 22.1985C28.6203 18.0583 25.2652 14.7032 21.125 14.6985C17.3298 14.7028 14.2543 17.7783 14.25 21.5735C14.2539 25.0237 17.0498 27.8196 20.5 27.8235C23.6052 27.82 26.1216 25.3037 26.125 22.1985C26.122 19.4383 23.8852 17.2015 21.125 17.1985C18.7098 17.2011 16.7526 19.1583 16.75 21.5735C16.7522 23.6437 18.4298 25.3213 20.5 25.3235C22.2259 25.3235 23.625 23.9244 23.625 22.1985C23.625 20.8178 22.5057 19.6985 21.125 19.6985C20.0895 19.6985 19.25 20.538 19.25 21.5735C19.25 22.2638 19.8096 22.8235 20.5 22.8235C20.8452 22.8235 21.125 22.5437 21.125 22.1985C20.7798 22.1985 20.5 21.9187 20.5 21.5735C20.5 21.2283 20.7798 20.9485 21.125 20.9485C21.8154 20.9485 22.375 21.5081 22.375 22.1985C22.375 23.234 21.5355 24.0735 20.5 24.0735C19.1193 24.0735 18 22.9542 18 21.5735C18 19.8476 19.3991 18.4485 21.125 18.4485C23.1952 18.4506 24.8728 20.1283 24.875 22.1985C24.8724 24.6137 22.9152 26.5709 20.5 26.5735C17.7398 26.5705 15.503 24.3337 15.5 21.5735C15.5034 18.4683 18.0198 15.9519 21.125 15.9485C24.5752 15.9524 27.3711 18.7483 27.375 22.1985C27.3707 25.9937 24.2952 29.0692 20.5 29.0735C16.3598 29.0688 13.0047 25.7137 13 21.5735C13.0047 17.0881 16.6396 13.4532 21.125 13.4485C25.9553 13.4537 29.8698 17.3681 29.875 22.1985Z" fill="white"/>
</g>
<defs>
<clipPath id="clip0_6_142">
<rect width="20" height="20" fill="white" transform="translate(10.5 10.9485)"/>
</clipPath>
</defs>
</svg>
