<svg width="41" height="41" viewBox="0 0 41 41" fill="none" xmlns="http://www.w3.org/2000/svg">
<rect x="0.5" y="0.948486" width="40" height="40" rx="20" fill="black" fill-opacity="0.4"/>
<g clip-path="url(#clip0_6_132)">
<path fill-rule="evenodd" clip-rule="evenodd" d="M27.375 14.0735H16.125C15.4346 14.0735 14.875 14.6331 14.875 15.3235V16.5735H13.625C12.9346 16.5735 12.375 17.1331 12.375 17.8235V26.5735C12.375 27.2638 12.9346 27.8235 13.625 27.8235H24.875C25.5654 27.8235 26.125 27.2638 26.125 26.5735V25.3235H27.375C28.0654 25.3235 28.625 24.7638 28.625 24.0735V15.3235C28.625 14.6331 28.0654 14.0735 27.375 14.0735ZM16.125 15.3235H27.375V20.2258L26.5883 19.4399C26.3539 19.2054 26.0359 19.0737 25.7043 19.0737C25.3727 19.0737 25.0547 19.2054 24.8203 19.4399L23.2578 21.0024L19.8203 17.5649C19.3322 17.0771 18.5412 17.0771 18.0531 17.5649L16.125 19.493V15.3235ZM24.875 26.5735H13.625V17.8235H14.875V24.0735C14.875 24.7638 15.4346 25.3235 16.125 25.3235H24.875V26.5735ZM27.375 24.0735H16.125V21.261L18.9375 18.4485L22.8172 22.3282C23.0612 22.5721 23.4567 22.5721 23.7008 22.3282L25.7055 20.3235L27.375 21.9938V24.0735ZM23 17.511C23 16.9932 23.4197 16.5735 23.9375 16.5735C24.4553 16.5735 24.875 16.9932 24.875 17.511C24.875 18.0288 24.4553 18.4485 23.9375 18.4485C23.4197 18.4485 23 18.0288 23 17.511Z" fill="white"/>
</g>
<defs>
<clipPath id="clip0_6_132">
<rect width="20" height="20" fill="white" transform="translate(10.5 10.9485)"/>
</clipPath>
</defs>
</svg>
