<svg width="25" height="25" viewBox="0 0 25 25" fill="none" xmlns="http://www.w3.org/2000/svg">
<g clip-path="url(#clip0_6_161)">
<path fill-rule="evenodd" clip-rule="evenodd" d="M12.5 8.44849C10.0147 8.44849 8 10.4632 8 12.9485C8 15.4338 10.0147 17.4485 12.5 17.4485C14.9853 17.4485 17 15.4338 17 12.9485C16.9974 10.4643 14.9842 8.45107 12.5 8.44849ZM12.5 15.9485C10.8431 15.9485 9.5 14.6053 9.5 12.9485C9.5 11.2916 10.8431 9.94849 12.5 9.94849C14.1569 9.94849 15.5 11.2916 15.5 12.9485C15.5 14.6053 14.1569 15.9485 12.5 15.9485ZM20.75 13.151C20.7537 13.016 20.7537 12.881 20.75 12.746L22.1488 10.9985C22.2975 10.8124 22.349 10.5668 22.2875 10.3366C22.0582 9.47468 21.7152 8.6471 21.2675 7.87567C21.1486 7.67098 20.9401 7.53441 20.705 7.50724L18.4813 7.25974C18.3888 7.16224 18.295 7.06849 18.2 6.97849L17.9375 4.74911C17.9101 4.5138 17.7732 4.30525 17.5681 4.18661C16.7964 3.73975 15.9689 3.39708 15.1072 3.16755C14.8769 3.10632 14.6312 3.15817 14.4453 3.30724L12.7025 4.69849C12.5675 4.69849 12.4325 4.69849 12.2975 4.69849L10.55 3.30255C10.3639 3.15381 10.1183 3.10231 9.88813 3.1638C9.02633 3.39351 8.1988 3.7365 7.42719 4.1838C7.22249 4.30265 7.08592 4.51116 7.05875 4.7463L6.81125 6.9738C6.71375 7.06692 6.62 7.16067 6.53 7.25505L4.30063 7.51099C4.06531 7.53836 3.85677 7.67531 3.73813 7.88036C3.29126 8.65208 2.94859 9.47959 2.71906 10.3413C2.65784 10.5716 2.70969 10.8173 2.85875 11.0032L4.25 12.746C4.25 12.881 4.25 13.016 4.25 13.151L2.85406 14.8985C2.70533 15.0846 2.65383 15.3302 2.71531 15.5604C2.94462 16.4223 3.28763 17.2499 3.73531 18.0213C3.85417 18.226 4.06268 18.3626 4.29781 18.3897L6.52156 18.6372C6.61469 18.7347 6.70844 18.8285 6.80281 18.9185L7.0625 21.1479C7.08988 21.3832 7.22682 21.5917 7.43188 21.7104C8.20359 22.1572 9.0311 22.4999 9.89281 22.7294C10.1231 22.7906 10.3688 22.7388 10.5547 22.5897L12.2975 21.1985C12.4325 21.2022 12.5675 21.2022 12.7025 21.1985L14.45 22.5972C14.6361 22.746 14.8817 22.7975 15.1119 22.736C15.9738 22.5067 16.8014 22.1637 17.5728 21.716C17.7775 21.5971 17.9141 21.3886 17.9412 21.1535L18.1887 18.9297C18.2862 18.8372 18.38 18.7435 18.47 18.6485L20.6994 18.386C20.9347 18.3586 21.1432 18.2217 21.2619 18.0166C21.7087 17.2449 22.0514 16.4174 22.2809 15.5557C22.3422 15.3254 22.2903 15.0797 22.1413 14.8938L20.75 13.151ZM19.2406 12.5416C19.2566 12.8126 19.2566 13.0843 19.2406 13.3554C19.2295 13.5409 19.2876 13.724 19.4037 13.8691L20.7341 15.5313C20.5814 16.0164 20.386 16.487 20.15 16.9375L18.0312 17.1775C17.8467 17.198 17.6764 17.2862 17.5531 17.425C17.3727 17.628 17.1805 17.8202 16.9775 18.0007C16.8387 18.1239 16.7505 18.2943 16.73 18.4788L16.4947 20.5957C16.0442 20.8317 15.5736 21.0272 15.0884 21.1797L13.4253 19.8494C13.2922 19.7431 13.1269 19.6852 12.9566 19.6854H12.9116C12.6405 19.7013 12.3688 19.7013 12.0978 19.6854C11.9123 19.6742 11.7292 19.7323 11.5841 19.8485L9.91719 21.1797C9.43206 21.0271 8.96146 20.8316 8.51094 20.5957L8.27094 18.4797C8.25046 18.2952 8.16227 18.1249 8.02344 18.0016C7.82048 17.8212 7.62827 17.6289 7.44781 17.426C7.32456 17.2872 7.1542 17.199 6.96969 17.1785L4.85281 16.9422C4.61674 16.4918 4.42128 16.0212 4.26875 15.536L5.59906 13.8729C5.71522 13.7277 5.77336 13.5447 5.76219 13.3591C5.74625 13.0881 5.74625 12.8164 5.76219 12.5454C5.77336 12.3598 5.71522 12.1767 5.59906 12.0316L4.26875 10.3657C4.4214 9.88055 4.61685 9.40995 4.85281 8.95942L6.96875 8.71942C7.15326 8.69894 7.32362 8.61076 7.44688 8.47192C7.62733 8.26896 7.81954 8.07676 8.0225 7.8963C8.16188 7.77297 8.25043 7.60222 8.27094 7.41724L8.50625 5.3013C8.95672 5.06523 9.42733 4.86977 9.9125 4.71724L11.5756 6.04755C11.7207 6.16371 11.9038 6.22184 12.0894 6.21067C12.3604 6.19474 12.6321 6.19474 12.9031 6.21067C13.0887 6.22184 13.2718 6.16371 13.4169 6.04755L15.0828 4.71724C15.5679 4.86988 16.0385 5.06534 16.4891 5.3013L16.7291 7.41724C16.7495 7.60175 16.8377 7.77211 16.9766 7.89536C17.1795 8.07582 17.3717 8.26803 17.5522 8.47099C17.6754 8.60982 17.8458 8.698 18.0303 8.71849L20.1472 8.9538C20.3833 9.40427 20.5787 9.87488 20.7313 10.36L19.4009 12.0232C19.2837 12.1695 19.2255 12.3545 19.2378 12.5416H19.2406Z" fill="#756387"/>
</g>
<defs>
<clipPath id="clip0_6_161">
<rect width="24" height="24" fill="white" transform="translate(0.5 0.948486)"/>
</clipPath>
</defs>
</svg>
