<svg width="25" height="25" viewBox="0 0 25 25" fill="none" xmlns="http://www.w3.org/2000/svg">
<g clip-path="url(#clip0_169_768)">
<path fill-rule="evenodd" clip-rule="evenodd" d="M21.5 12.0515C21.5 12.4657 21.1642 12.8015 20.75 12.8015H6.06031L11.5306 18.2709C11.8237 18.5639 11.8237 19.0391 11.5306 19.3321C11.2376 19.6252 10.7624 19.6252 10.4694 19.3321L3.71937 12.5821C3.57854 12.4415 3.49941 12.2506 3.49941 12.0515C3.49941 11.8525 3.57854 11.6616 3.71937 11.5209L10.4694 4.77089C10.7624 4.47783 11.2376 4.47783 11.5306 4.77089C11.8237 5.06394 11.8237 5.53908 11.5306 5.83214L6.06031 11.3015H20.75C21.1642 11.3015 21.5 11.6373 21.5 12.0515Z" fill="white"/>
</g>
<defs>
<clipPath id="clip0_169_768">
<rect width="24" height="24" fill="white" transform="translate(0.5 0.0515137)"/>
</clipPath>
</defs>
</svg>
