<svg width="25" height="24" viewBox="0 0 25 24" fill="none" xmlns="http://www.w3.org/2000/svg">
<g clip-path="url(#clip0_12_59)">
<path fill-rule="evenodd" clip-rule="evenodd" d="M21.5 12C21.5 12.4142 21.1642 12.75 20.75 12.75H6.06031L11.5306 18.2194C11.8237 18.5124 11.8237 18.9876 11.5306 19.2806C11.2376 19.5737 10.7624 19.5737 10.4694 19.2806L3.71937 12.5306C3.57854 12.3899 3.49941 12.1991 3.49941 12C3.49941 11.8009 3.57854 11.6101 3.71937 11.4694L10.4694 4.71938C10.7624 4.42632 11.2376 4.42632 11.5306 4.71938C11.8237 5.01243 11.8237 5.48757 11.5306 5.78062L6.06031 11.25H20.75C21.1642 11.25 21.5 11.5858 21.5 12Z" fill="#141217"/>
</g>
<defs>
<clipPath id="clip0_12_59">
<rect width="24" height="24" fill="white" transform="translate(0.5)"/>
</clipPath>
</defs>
</svg>
