<svg width="25" height="24" viewBox="0 0 25 24" fill="none" xmlns="http://www.w3.org/2000/svg">
<g clip-path="url(#clip0_12_71)">
<path fill-rule="evenodd" clip-rule="evenodd" d="M22.25 20.25H20V3.75C20 2.92157 19.3284 2.25 18.5 2.25H6.5C5.67157 2.25 5 2.92157 5 3.75V20.25H2.75C2.33579 20.25 2 20.5858 2 21C2 21.4142 2.33579 21.75 2.75 21.75H22.25C22.6642 21.75 23 21.4142 23 21C23 20.5858 22.6642 20.25 22.25 20.25ZM6.5 3.75H18.5V20.25H6.5V3.75ZM16.25 12.375C16.25 12.9963 15.7463 13.5 15.125 13.5C14.5037 13.5 14 12.9963 14 12.375C14 11.7537 14.5037 11.25 15.125 11.25C15.7463 11.25 16.25 11.7537 16.25 12.375Z" fill="#141217"/>
</g>
<defs>
<clipPath id="clip0_12_71">
<rect width="24" height="24" fill="white" transform="translate(0.5)"/>
</clipPath>
</defs>
</svg>
