<svg width="25" height="25" viewBox="0 0 25 25" fill="none" xmlns="http://www.w3.org/2000/svg">
<g clip-path="url(#clip0_169_781)">
<path fill-rule="evenodd" clip-rule="evenodd" d="M22.25 20.3015H20V3.80151C20 2.97309 19.3284 2.30151 18.5 2.30151H6.5C5.67157 2.30151 5 2.97309 5 3.80151V20.3015H2.75C2.33579 20.3015 2 20.6373 2 21.0515C2 21.4657 2.33579 21.8015 2.75 21.8015H22.25C22.6642 21.8015 23 21.4657 23 21.0515C23 20.6373 22.6642 20.3015 22.25 20.3015ZM6.5 3.80151H18.5V20.3015H6.5V3.80151ZM16.25 12.4265C16.25 13.0478 15.7463 13.5515 15.125 13.5515C14.5037 13.5515 14 13.0478 14 12.4265C14 11.8052 14.5037 11.3015 15.125 11.3015C15.7463 11.3015 16.25 11.8052 16.25 12.4265Z" fill="white"/>
</g>
<defs>
<clipPath id="clip0_169_781">
<rect width="24" height="24" fill="white" transform="translate(0.5 0.0515137)"/>
</clipPath>
</defs>
</svg>
