<svg width="24" height="24" viewBox="0 0 24 24" fill="none" xmlns="http://www.w3.org/2000/svg">
<g clip-path="url(#clip0_109_440)">
<path fill-rule="evenodd" clip-rule="evenodd" d="M18.75 15.75C17.3821 15.7513 16.1876 16.6761 15.8438 18H6.75C5.09315 18 3.75 16.6569 3.75 15C3.75 13.3431 5.09315 12 6.75 12H15.75C17.8211 12 19.5 10.3211 19.5 8.25C19.5 6.17893 17.8211 4.5 15.75 4.5H6.75C6.33579 4.5 6 4.83579 6 5.25C6 5.66421 6.33579 6 6.75 6H15.75C16.9926 6 18 7.00736 18 8.25C18 9.49264 16.9926 10.5 15.75 10.5H6.75C4.26472 10.5 2.25 12.5147 2.25 15C2.25 17.4853 4.26472 19.5 6.75 19.5H15.8438C16.2335 21.0093 17.7142 21.9687 19.251 21.7076C20.7878 21.4465 21.8686 20.052 21.7379 18.4986C21.6073 16.9453 20.3088 15.7508 18.75 15.75ZM18.75 20.25C17.9216 20.25 17.25 19.5784 17.25 18.75C17.25 17.9216 17.9216 17.25 18.75 17.25C19.5784 17.25 20.25 17.9216 20.25 18.75C20.25 19.5784 19.5784 20.25 18.75 20.25Z" fill="#171412"/>
</g>
<defs>
<clipPath id="clip0_109_440">
<rect width="24" height="24" fill="white"/>
</clipPath>
</defs>
</svg>
