<svg width="26" height="27" viewBox="0 0 26 27" fill="none" xmlns="http://www.w3.org/2000/svg">
<path d="M16.7454 14.0464L16.3554 13.4057C16.103 13.5595 15.9644 13.847 16.0014 14.1403C16.0383 14.4334 16.244 14.6776 16.5267 14.7638L16.7454 14.0464ZM9.73577 14.0464L9.95451 14.7638C10.2372 14.6776 10.4429 14.4334 10.4799 14.1403C10.5168 13.847 10.3782 13.5595 10.1258 13.4057L9.73577 14.0464ZM19.2407 8.27649C19.2407 10.4485 18.087 12.3517 16.3554 13.4057L17.1354 14.687C19.2954 13.3721 20.7407 10.9934 20.7407 8.27649H19.2407ZM13.2407 2.27649C16.5543 2.27649 19.2407 4.96278 19.2407 8.27649H20.7407C20.7407 4.13436 17.3828 0.776489 13.2407 0.776489V2.27649ZM7.24061 8.27649C7.24061 4.96278 9.9269 2.27649 13.2407 2.27649V0.776489C9.09848 0.776489 5.74061 4.13436 5.74061 8.27649H7.24061ZM10.1258 13.4057C8.39423 12.3517 7.24061 10.4485 7.24061 8.27649H5.74061C5.74061 10.9934 7.1858 13.3721 9.3458 14.687L10.1258 13.4057ZM9.51704 13.3289C4.78191 14.7728 1.21601 18.8971 0.588826 23.9368L2.07734 24.122C2.63024 19.6792 5.77638 16.0378 9.95451 14.7638L9.51704 13.3289ZM0.588826 23.9368C0.423061 25.2688 1.52649 26.2765 2.74061 26.2765V24.7765C2.29788 24.7765 2.03849 24.4343 2.07734 24.122L0.588826 23.9368ZM2.74061 26.2765H23.7407V24.7765H2.74061V26.2765ZM23.7407 26.2765C24.9548 26.2765 26.0582 25.2688 25.8924 23.9368L24.4038 24.122C24.4427 24.4343 24.1833 24.7765 23.7407 24.7765V26.2765ZM25.8924 23.9368C25.2653 18.8971 21.6993 14.7728 16.9641 13.3289L16.5267 14.7638C20.7048 16.0378 23.8509 19.6792 24.4038 24.122L25.8924 23.9368Z" fill="#2B3161"/>
</svg>
