<svg width="25" height="25" viewBox="0 0 25 25" fill="none" xmlns="http://www.w3.org/2000/svg">
<g clip-path="url(#clip0_169_755)">
<path fill-rule="evenodd" clip-rule="evenodd" d="M21.2806 12.5821L14.5306 19.3321C14.2376 19.6252 13.7624 19.6252 13.4694 19.3321C13.1763 19.0391 13.1763 18.5639 13.4694 18.2709L18.9397 12.8015H4.25C3.83579 12.8015 3.5 12.4657 3.5 12.0515C3.5 11.6373 3.83579 11.3015 4.25 11.3015H18.9397L13.4694 5.83214C13.1763 5.53908 13.1763 5.06394 13.4694 4.77089C13.7624 4.47783 14.2376 4.47783 14.5306 4.77089L21.2806 11.5209C21.4215 11.6616 21.5006 11.8525 21.5006 12.0515C21.5006 12.2506 21.4215 12.4415 21.2806 12.5821Z" fill="white"/>
</g>
<defs>
<clipPath id="clip0_169_755">
<rect width="24" height="24" fill="white" transform="translate(0.5 0.0515137)"/>
</clipPath>
</defs>
</svg>
