<svg width="25" height="24" viewBox="0 0 25 24" fill="none" xmlns="http://www.w3.org/2000/svg">
<g clip-path="url(#clip0_12_45)">
<path fill-rule="evenodd" clip-rule="evenodd" d="M21.2806 12.5306L14.5306 19.2806C14.2376 19.5737 13.7624 19.5737 13.4694 19.2806C13.1763 18.9876 13.1763 18.5124 13.4694 18.2194L18.9397 12.75H4.25C3.83579 12.75 3.5 12.4142 3.5 12C3.5 11.5858 3.83579 11.25 4.25 11.25H18.9397L13.4694 5.78062C13.1763 5.48757 13.1763 5.01243 13.4694 4.71938C13.7624 4.42632 14.2376 4.42632 14.5306 4.71938L21.2806 11.4694C21.4215 11.6101 21.5006 11.8009 21.5006 12C21.5006 12.1991 21.4215 12.3899 21.2806 12.5306Z" fill="#141217"/>
</g>
<defs>
<clipPath id="clip0_12_45">
<rect width="24" height="24" fill="white" transform="translate(0.5)"/>
</clipPath>
</defs>
</svg>
