<svg width="25" height="25" viewBox="0 0 25 25" fill="none" xmlns="http://www.w3.org/2000/svg">
<g clip-path="url(#clip0_169_729)">
<path fill-rule="evenodd" clip-rule="evenodd" d="M19.25 2.30151H5.75C4.92157 2.30151 4.25 2.97309 4.25 3.80151V20.3015C4.25 21.1299 4.92157 21.8015 5.75 21.8015H19.25C20.0784 21.8015 20.75 21.1299 20.75 20.3015V3.80151C20.75 2.97309 20.0784 2.30151 19.25 2.30151ZM14.75 13.5515H19.25V15.8015H11V13.5515H14.75ZM15.5 12.0515V9.80151H19.25V12.0515H15.5ZM19.25 3.80151V8.30151H14.75C14.3358 8.30151 14 8.6373 14 9.05151V12.0515H10.25C9.83579 12.0515 9.5 12.3873 9.5 12.8015V15.8015H5.75V3.80151H19.25ZM19.25 20.3015H5.75V17.3015H19.25V20.3015Z" fill="white"/>
</g>
<defs>
<clipPath id="clip0_169_729">
<rect width="24" height="24" fill="white" transform="translate(0.5 0.0515137)"/>
</clipPath>
</defs>
</svg>
