<svg width="25" height="24" viewBox="0 0 25 24" fill="none" xmlns="http://www.w3.org/2000/svg">
<g clip-path="url(#clip0_12_32)">
<path fill-rule="evenodd" clip-rule="evenodd" d="M14.75 7.5C16.4069 7.5 17.75 6.15685 17.75 4.5C17.75 2.84315 16.4069 1.5 14.75 1.5C13.0931 1.5 11.75 2.84315 11.75 4.5C11.75 6.15685 13.0931 7.5 14.75 7.5ZM14.75 3C15.5784 3 16.25 3.67157 16.25 4.5C16.25 5.32843 15.5784 6 14.75 6C13.9216 6 13.25 5.32843 13.25 4.5C13.25 3.67157 13.9216 3 14.75 3ZM20.75 13.5C20.75 13.9142 20.4142 14.25 20 14.25C16.6897 14.25 15.0359 12.5803 13.7075 11.2388C13.4506 10.9791 13.205 10.7325 12.9575 10.5037L11.6984 13.3988L15.1859 15.8897C15.383 16.0305 15.5 16.2578 15.5 16.5V21.75C15.5 22.1642 15.1642 22.5 14.75 22.5C14.3358 22.5 14 22.1642 14 21.75V16.8862L11.0872 14.805L7.93813 22.0491C7.81902 22.323 7.54871 22.5001 7.25 22.5C7.14701 22.5002 7.04512 22.4788 6.95094 22.4372C6.57129 22.2721 6.39715 21.8307 6.56187 21.4509L11.6319 9.79125C10.7591 9.63656 9.67062 9.90375 8.37875 10.5956C7.34843 11.1639 6.38682 11.8487 5.51281 12.6366C5.2094 12.9083 4.74453 12.8883 4.46569 12.5913C4.18684 12.2944 4.19597 11.8292 4.48625 11.5434C4.72062 11.3231 10.2697 6.17812 13.7413 9.19219C14.1003 9.50344 14.4425 9.84844 14.7725 10.1831C16.0803 11.5031 17.315 12.75 20 12.75C20.4142 12.75 20.75 13.0858 20.75 13.5Z" fill="#141217"/>
</g>
<defs>
<clipPath id="clip0_12_32">
<rect width="24" height="24" fill="white" transform="translate(0.5)"/>
</clipPath>
</defs>
</svg>
