<svg width="25" height="25" viewBox="0 0 25 25" fill="none" xmlns="http://www.w3.org/2000/svg">
<g clip-path="url(#clip0_169_742)">
<path fill-rule="evenodd" clip-rule="evenodd" d="M14.75 7.55151C16.4069 7.55151 17.75 6.20837 17.75 4.55151C17.75 2.89466 16.4069 1.55151 14.75 1.55151C13.0931 1.55151 11.75 2.89466 11.75 4.55151C11.75 6.20837 13.0931 7.55151 14.75 7.55151ZM14.75 3.05151C15.5784 3.05151 16.25 3.72309 16.25 4.55151C16.25 5.37994 15.5784 6.05151 14.75 6.05151C13.9216 6.05151 13.25 5.37994 13.25 4.55151C13.25 3.72309 13.9216 3.05151 14.75 3.05151ZM20.75 13.5515C20.75 13.9657 20.4142 14.3015 20 14.3015C16.6897 14.3015 15.0359 12.6318 13.7075 11.2903C13.4506 11.0306 13.205 10.784 12.9575 10.5553L11.6984 13.4503L15.1859 15.9412C15.383 16.082 15.5 16.3093 15.5 16.5515V21.8015C15.5 22.2157 15.1642 22.5515 14.75 22.5515C14.3358 22.5515 14 22.2157 14 21.8015V16.9378L11.0872 14.8565L7.93813 22.1006C7.81902 22.3745 7.54871 22.5516 7.25 22.5515C7.14701 22.5518 7.04512 22.5304 6.95094 22.4887C6.57129 22.3237 6.39715 21.8822 6.56187 21.5025L11.6319 9.84276C10.7591 9.68808 9.67062 9.95526 8.37875 10.6471C7.34843 11.2155 6.38682 11.9003 5.51281 12.6881C5.2094 12.9599 4.74453 12.9398 4.46569 12.6428C4.18684 12.3459 4.19597 11.8807 4.48625 11.595C4.72062 11.3746 10.2697 6.22964 13.7413 9.2437C14.1003 9.55495 14.4425 9.89995 14.7725 10.2346C16.0803 11.5546 17.315 12.8015 20 12.8015C20.4142 12.8015 20.75 13.1373 20.75 13.5515Z" fill="white"/>
</g>
<defs>
<clipPath id="clip0_169_742">
<rect width="24" height="24" fill="white" transform="translate(0.5 0.0515137)"/>
</clipPath>
</defs>
</svg>
